<?xml version="1.0" standalone="no"?>
<!DOCTYPE svg PUBLIC "-//W3C//DTD SVG 20010904//EN"
 "http://www.w3.org/TR/2001/REC-SVG-20010904/DTD/svg10.dtd">
<svg version="1.0" xmlns="http://www.w3.org/2000/svg"
 width="600.000000pt" height="600.000000pt" viewBox="0 0 600.000000 600.000000"
 preserveAspectRatio="xMidYMid meet">
<metadata>
Created by potrace 1.11, written by Peter Selinger 2001-2013
</metadata>
<g transform="translate(0.000000,600.000000) scale(0.100000,-0.100000)"
fill="#000000" stroke="none">
<path d="M2973 5692 c-11 -7 -19 -53 -38 -227 -4 -33 -10 -63 -13 -67 -4 -3
-54 -9 -112 -13 -58 -3 -118 -8 -135 -10 -16 -2 -52 -7 -80 -10 -27 -3 -70
-11 -94 -16 -24 -5 -56 -11 -70 -14 -77 -11 -223 -54 -365 -107 -409 -153
-777 -427 -1059 -789 -94 -121 -230 -356 -292 -504 -56 -135 -123 -348 -141
-455 -19 -105 -24 -141 -29 -185 -11 -91 -13 -119 -14 -182 -1 -50 -4 -63 -18
-67 -37 -11 -229 -27 -312 -27 -47 1 -95 1 -106 1 -59 0 -75 -3 -75 -14 0 -14
57 -16 78 -3 6 5 12 4 12 0 0 -5 18 -9 40 -8 22 0 40 4 40 9 0 5 7 3 15 -4 12
-10 15 -10 15 1 0 9 3 10 8 3 4 -6 18 -11 32 -11 14 -1 36 -4 50 -6 14 -3 45
-8 70 -11 25 -2 69 -8 98 -11 l52 -8 1 -51 c0 -28 2 -58 4 -66 1 -8 5 -44 9
-80 8 -88 13 -117 42 -247 225 -1017 1101 -1767 2163 -1851 52 -5 110 -7 128
-6 36 2 38 -1 48 -86 3 -30 8 -71 10 -90 3 -19 7 -55 10 -80 9 -76 11 -82 28
-91 19 -11 23 0 32 96 4 38 8 72 10 75 1 3 6 34 9 70 9 84 11 99 17 104 2 2
42 6 89 9 483 33 1002 248 1380 571 78 67 259 257 321 336 221 285 381 623
454 962 11 52 24 126 30 173 13 94 14 104 17 169 1 36 7 66 13 67 5 0 19 2 30
4 11 2 49 7 85 11 127 13 215 30 213 41 -2 8 15 11 47 9 28 -1 50 2 50 7 0 4
5 5 12 1 14 -9 163 -8 178 1 5 3 10 0 10 -7 0 -10 3 -9 9 2 11 17 4 33 -11 24
-11 -7 -439 -7 -473 0 -11 2 -49 7 -85 11 -36 4 -66 8 -68 10 -2 2 -5 36 -7
77 -27 531 -234 1041 -581 1433 -211 239 -449 423 -732 565 -66 33 -123 60
-126 60 -3 0 -25 9 -49 19 -103 47 -350 120 -460 136 -23 4 -60 10 -82 15 -22
5 -76 11 -120 15 -101 8 -138 14 -146 23 -4 4 -9 32 -13 62 -24 238 -27 248
-53 232z"/>
</g>
</svg>
